<?xml version="1.0" standalone="no"?>
<!DOCTYPE svg PUBLIC "-//W3C//DTD SVG 20010904//EN"
 "http://www.w3.org/TR/2001/REC-SVG-20010904/DTD/svg10.dtd">
<svg version="1.0" xmlns="http://www.w3.org/2000/svg"
 width="350.000000pt" height="285.000000pt" viewBox="0 0 350.000000 285.000000"
 preserveAspectRatio="xMidYMid meet">

<g transform="translate(0.000000,285.000000) scale(0.100000,-0.100000)"
fill="#000000" stroke="none">
<path d="M1589 2840 c-224 -36 -400 -112 -572 -249 -40 -32 -79 -61 -87 -64
-11 -4 -11 -6 3 -6 10 -1 45 22 78 49 117 98 231 160 379 209 330 109 703 56
993 -141 73 -49 203 -171 188 -176 -6 -2 -44 25 -85 61 -96 84 -142 115 -251
170 -373 187 -828 146 -1159 -106 -38 -28 -77 -57 -87 -63 -16 -9 -15 -12 14
-22 18 -6 55 -14 82 -18 83 -11 153 -53 93 -55 -13 0 -4 -6 21 -12 47 -13 64
-33 34 -39 -10 -2 7 -4 37 -4 30 1 66 -3 79 -8 16 -5 21 -5 17 2 -4 6 -27 14
-52 18 -33 5 -44 10 -40 21 3 8 2 11 -4 8 -15 -10 -58 6 -64 23 -3 10 -8 22
-12 29 -4 8 8 8 48 -1 50 -11 55 -10 113 21 33 17 101 44 150 59 80 24 106 27
235 27 128 0 155 -3 233 -27 92 -27 233 -93 261 -121 13 -14 22 -15 47 -6 26
9 30 8 27 -6 -2 -10 -14 -23 -28 -30 -49 -23 -95 -41 -127 -48 -18 -3 -35 -11
-39 -16 -3 -6 5 -7 23 -3 l28 7 -19 -22 c-11 -11 -25 -21 -33 -21 -10 0 -12
-6 -8 -19 3 -11 1 -22 -5 -26 -5 -3 -7 -17 -4 -31 4 -14 2 -24 -5 -24 -6 0 -8
-6 -5 -13 2 -7 -4 -21 -15 -31 -14 -13 -18 -26 -15 -45 7 -33 -13 -53 -84 -80
-42 -15 -52 -17 -48 -5 3 8 1 14 -4 14 -6 0 -10 -6 -10 -12 0 -9 -3 -9 -8 -2
-10 14 -42 26 -42 15 0 -5 6 -12 13 -14 6 -3 1 -6 -13 -7 -23 -1 -23 -2 -5
-10 16 -7 17 -9 3 -9 -9 -1 -20 -6 -24 -12 -5 -8 6 -9 36 -4 32 5 41 4 38 -6
-2 -7 -17 -14 -34 -16 -51 -6 -62 -13 -40 -25 13 -7 20 -7 25 1 4 7 15 9 25 5
15 -6 15 -8 1 -24 -8 -9 -13 -19 -10 -22 3 -3 -16 -4 -44 -3 l-50 3 -12 -49
c-7 -27 -16 -49 -21 -49 -13 0 -9 45 5 59 10 11 8 12 -10 6 -14 -4 -23 -2 -23
4 0 6 -4 11 -9 11 -5 0 -3 -12 4 -27 19 -41 30 -97 16 -89 -6 4 -11 1 -11 -8
0 -8 -7 -21 -15 -30 -8 -8 -11 -17 -6 -20 5 -3 7 -15 4 -26 -3 -11 0 -26 6
-34 19 -23 33 -79 18 -73 -8 3 -14 -5 -15 -19 -2 -23 1 -24 68 -24 40 0 70 4
70 10 0 6 -4 10 -10 10 -5 0 -7 13 -3 32 4 22 3 29 -5 24 -7 -4 -12 -19 -12
-33 0 -22 -2 -24 -15 -13 -13 11 -14 10 -8 -5 5 -15 3 -17 -11 -12 -10 4 -27
7 -39 7 -12 0 -17 4 -12 8 10 7 35 56 35 69 0 3 -6 1 -13 -5 -10 -9 -11 4 -5
71 9 94 33 176 55 184 33 13 61 -15 83 -82 12 -36 19 -69 16 -72 -3 -3 -1 -12
5 -20 6 -7 8 -13 4 -13 -4 0 -2 -6 4 -13 6 -8 12 -23 14 -34 1 -11 10 -32 20
-46 23 -36 21 -47 -4 -18 l-20 24 5 -26 c2 -15 1 -29 -4 -32 -12 -8 -41 6 -34
16 3 6 1 16 -6 24 -6 7 -10 19 -9 27 3 24 -1 38 -10 35 -5 -1 -16 7 -25 18
-15 19 -15 19 -10 -7 2 -16 0 -28 -6 -28 -15 0 -16 59 -2 70 10 8 11 80 1 80
-5 0 -9 -17 -9 -37 0 -21 -14 -69 -30 -107 -16 -38 -29 -71 -27 -72 1 -1 12 8
24 22 12 13 17 24 11 24 -6 0 -8 3 -4 7 11 11 76 13 76 2 0 -5 -6 -9 -12 -9
-7 0 -5 -5 5 -11 14 -8 17 -18 12 -40 l-7 -29 86 0 87 0 -16 -30 c-12 -23 -15
-71 -15 -250 0 -139 -4 -219 -10 -215 -5 3 -62 70 -125 148 -64 78 -120 143
-123 144 -4 1 -61 -65 -127 -147 -66 -82 -123 -149 -127 -149 -5 -1 -8 101 -8
227 0 190 -3 231 -16 250 -15 22 -15 22 35 22 49 0 51 1 51 28 0 17 10 38 25
52 14 13 25 28 25 32 0 5 -7 2 -16 -7 -25 -24 -29 -10 -9 32 26 53 36 130 24
174 -7 26 14 49 43 49 9 0 8 -3 -2 -10 -8 -5 -11 -10 -6 -10 5 0 3 -8 -5 -18
-8 -10 -4 -7 9 6 12 13 27 20 32 17 6 -3 10 -2 10 3 0 5 -14 15 -31 22 -26 11
-32 11 -40 -1 -6 -10 -11 -11 -19 -3 -16 16 -2 44 18 36 15 -5 15 -4 3 11 -10
13 -17 15 -27 6 -11 -9 -14 -8 -14 1 0 7 -11 1 -25 -14 -13 -14 -33 -26 -45
-26 -25 0 -38 29 -19 41 19 12 42 11 34 -1 -14 -22 15 -8 34 16 26 33 26 44 2
44 -11 0 -34 12 -51 26 -17 15 -34 23 -38 20 -3 -4 0 -11 8 -16 11 -7 8 -11
-15 -20 -17 -6 -43 -14 -60 -17 -16 -3 -36 -10 -43 -16 -11 -8 -12 -5 -7 16 5
17 3 27 -4 27 -6 0 -11 5 -11 11 0 6 6 9 13 6 7 -3 24 4 38 15 24 19 24 19 1
8 -13 -6 -30 -9 -38 -6 -8 3 -14 1 -14 -4 0 -11 -32 -1 -43 14 -6 8 -10 7 -14
-1 -2 -7 -14 -13 -26 -14 -21 0 -21 -1 -2 -8 11 -5 25 -5 31 0 6 5 19 3 30 -6
19 -14 19 -14 -1 -15 -11 0 -27 -5 -35 -10 -11 -8 -8 -9 13 -4 22 5 26 3 21
-10 -3 -9 -1 -16 5 -16 6 0 10 5 8 11 -1 6 4 14 12 17 10 3 12 0 7 -14 -19
-47 -16 -53 12 -38 15 8 34 14 43 14 8 0 19 4 25 9 11 11 84 32 84 24 0 -3 -8
-12 -17 -20 -12 -10 -9 -10 10 1 16 10 27 12 27 6 0 -6 4 -9 9 -5 6 3 9 -3 8
-13 -1 -15 -11 -18 -67 -18 -50 -1 -71 -5 -88 -20 -32 -27 -27 -39 7 -15 35
25 42 26 35 6 -4 -8 -12 -15 -18 -15 -7 0 -13 -7 -13 -15 0 -18 16 -20 23 -2
4 10 42 15 63 8 2 0 -8 -10 -23 -22 -14 -11 -30 -18 -36 -14 -5 3 -18 1 -27
-4 -15 -9 -15 -10 -2 -11 10 0 15 -8 15 -22 -1 -20 5 -23 39 -26 27 -2 35 0
26 7 -11 7 -9 11 9 21 21 11 21 13 7 22 -20 11 -22 24 -4 25 6 0 21 4 32 9 17
7 18 6 7 -8 -7 -8 -10 -23 -6 -32 4 -10 0 -18 -10 -22 -9 -3 -16 -15 -16 -26
0 -21 18 -22 78 -3 19 6 22 4 22 -21 0 -52 -21 -108 -61 -162 -22 -29 -37 -57
-34 -62 4 -6 -14 -10 -45 -10 l-52 0 31 -29 31 -29 0 -229 c0 -287 -6 -273
126 -273 89 0 130 -9 146 -33 3 -6 17 -1 33 12 24 18 41 21 126 21 136 0 129
-14 129 273 l0 229 31 29 31 29 -54 0 c-51 0 -54 1 -67 33 -22 54 -61 181 -61
198 0 29 31 31 60 4 27 -26 64 -33 75 -15 4 6 26 10 49 9 23 -2 48 1 54 5 29
17 -1 65 -40 66 -10 0 -18 5 -18 11 0 5 -4 7 -10 4 -5 -3 -10 2 -10 11 0 10
-3 14 -7 11 -3 -4 -16 5 -29 18 -17 19 -33 25 -64 25 -23 0 -40 5 -40 11 0 7
10 9 24 7 17 -4 23 -1 19 9 -3 8 2 13 13 13 17 1 17 3 -4 20 -12 10 -18 21
-13 24 5 3 14 -1 21 -9 7 -8 22 -15 34 -15 16 1 13 4 -13 16 -19 8 -31 17 -28
20 3 3 14 1 25 -5 26 -14 32 -14 32 -1 0 6 -7 10 -17 10 -9 0 -14 3 -11 6 4 3
22 1 42 -4 37 -11 42 -7 26 18 -9 13 -11 13 -21 0 -9 -13 -10 -12 -5 3 3 10 6
21 6 23 0 2 11 4 25 4 14 0 25 4 25 10 0 5 -7 7 -15 4 -9 -4 -15 0 -15 10 0
14 11 20 32 17 4 0 12 8 18 19 9 16 8 20 -7 21 -16 0 -16 1 2 9 14 6 16 9 4 9
-10 1 -15 12 -16 36 -1 39 6 44 24 16 10 -15 10 -21 0 -24 -7 -3 -5 -6 5 -6 9
-1 20 3 23 9 3 5 24 14 45 20 45 12 53 30 15 30 -14 0 -25 -3 -25 -8 0 -14
-42 -34 -52 -24 -6 6 -6 12 1 16 14 9 14 46 1 46 -14 0 -12 20 3 24 6 3 24 7
40 10 15 4 27 11 27 17 0 6 -7 6 -21 -1 -11 -7 -23 -9 -27 -6 -8 9 0 14 28 19
14 2 33 7 43 12 26 11 32 -1 13 -30 -9 -14 -26 -25 -39 -25 -31 0 -53 -15 -37
-25 6 -4 16 -3 21 2 6 6 21 8 35 5 22 -4 29 -13 25 -34 -2 -14 17 -8 22 6 3 8
-1 17 -9 20 -25 10 -16 36 14 37 23 2 24 2 4 6 -67 13 117 71 248 78 50 3 70
9 88 26 26 25 24 42 -4 48 -10 2 -53 36 -96 76 -154 145 -331 239 -538 286
-98 22 -316 33 -401 19z m211 -91 c0 -6 -9 -8 -20 -4 -18 6 -20 2 -20 -53 0
-41 -4 -59 -13 -59 -10 0 -12 15 -9 60 l5 60 -28 -7 c-17 -4 -24 -3 -20 4 8
13 105 13 105 -1z m74 5 c11 -4 13 -12 6 -29 -7 -19 -5 -24 13 -29 36 -9 39
-7 35 23 -3 23 -1 27 13 24 14 -4 16 -10 8 -36 -5 -18 -9 -44 -9 -59 0 -22 -5
-28 -22 -28 -17 0 -19 3 -10 12 20 20 14 45 -13 50 -24 5 -32 -9 -26 -44 0 -5
-9 -8 -20 -8 -16 0 -19 3 -11 13 6 7 12 36 14 65 2 29 4 52 5 52 1 0 8 -3 17
-6z m-254 -13 c0 -4 -11 -6 -25 -3 -22 4 -25 1 -25 -22 0 -23 3 -26 25 -20 15
4 25 2 25 -5 0 -6 -9 -11 -20 -11 -23 0 -27 -29 -8 -48 9 -9 8 -12 -8 -12 -17
0 -22 10 -30 60 -7 41 -7 61 1 64 19 8 65 6 65 -3z m-131 -47 c25 -32 26 -52
5 -82 -31 -45 -104 -17 -104 41 0 64 61 89 99 41z m580 15 c17 -6 31 -15 31
-20 0 -6 -8 -5 -19 1 -27 14 -38 13 -45 -7 -8 -19 10 -34 31 -26 9 4 11 0 7
-10 -5 -13 -9 -14 -24 -4 -22 13 -27 10 -32 -18 -2 -17 2 -20 30 -20 32 0 41
-8 22 -20 -6 -4 -26 -1 -46 5 -25 9 -34 16 -30 27 4 9 11 35 17 59 13 49 13
49 58 33z m561 -268 c0 -17 -27 -30 -85 -40 -122 -20 -241 -41 -257 -47 -41
-13 -5 27 42 47 14 6 45 12 69 15 24 2 49 8 55 13 19 16 176 26 176 12z m-510
-315 c0 -2 -7 -6 -15 -10 -8 -3 -15 -1 -15 4 0 6 7 10 15 10 8 0 15 -2 15 -4z
m-40 -16 c0 -5 -5 -10 -11 -10 -5 0 -7 5 -4 10 3 6 8 10 11 10 2 0 4 -4 4 -10z
m-505 -210 c-3 -5 -11 -10 -16 -10 -6 0 -7 5 -4 10 3 6 11 10 16 10 6 0 7 -4
4 -10z m379 -27 l20 -27 -27 20 c-26 18 -35 34 -19 34 4 0 16 -13 26 -27z m59
-7 c3 4 24 -8 45 -25 22 -17 44 -31 50 -31 5 0 15 -7 22 -15 20 -24 -2 -41
-24 -20 -9 9 -16 12 -16 6 0 -22 -24 -10 -62 32 -22 23 -45 51 -50 62 -11 19
-10 19 9 2 11 -9 22 -14 26 -11z m-438 4 c-3 -5 0 -10 7 -11 10 0 10 -2 1 -6
-16 -6 -17 -24 -2 -20 6 1 13 -3 15 -9 5 -11 -74 -49 -83 -40 -3 3 6 10 19 15
16 6 27 20 30 35 5 26 -7 37 -15 14 -2 -7 -8 -10 -12 -5 -5 4 0 14 11 22 22
17 38 20 29 5z m328 -20 c-4 -16 -2 -19 11 -14 9 3 16 10 16 16 0 5 5 6 11 3
15 -10 -22 -43 -41 -37 -31 11 -39 38 -12 45 9 3 18 5 19 6 0 0 -1 -8 -4 -19z
m-425 -15 c-2 -6 -6 -9 -10 -7 -5 1 -8 -5 -8 -13 0 -8 -9 -15 -20 -15 -21 0
-25 8 -12 26 14 21 57 29 50 9z m531 -27 c33 -35 40 -58 17 -58 -25 0 -46 12
-46 26 0 8 -7 14 -16 14 -8 0 -12 5 -9 10 3 6 1 10 -5 10 -6 0 -8 5 -4 12 6 9
9 9 12 0 2 -7 8 -12 14 -12 6 0 8 7 4 15 -8 23 0 18 33 -17z m-439 -215 c-1
-14 -27 -43 -39 -43 -8 0 -5 9 6 25 18 24 33 32 33 18z m304 -455 c64 -78 116
-146 116 -150 0 -5 -146 -16 -240 -17 -55 0 -231 15 -233 21 -2 8 224 288 234
288 4 0 59 -64 123 -142z"/>
<path d="M1423 2703 c-21 -8 -15 -68 8 -89 28 -25 55 -8 52 35 -2 49 -25 69
-60 54z"/>
<path d="M2010 1856 c0 -2 7 -9 15 -16 13 -11 14 -10 9 4 -5 14 -24 23 -24 12z"/>
<path d="M2055 1800 c3 -5 8 -10 11 -10 2 0 4 5 4 10 0 6 -5 10 -11 10 -5 0
-7 -4 -4 -10z"/>
<path d="M1746 1186 c6 -16 -24 -49 -37 -41 -5 4 -9 2 -9 -3 0 -5 9 -12 20
-15 10 -3 19 -2 18 2 -2 22 5 23 18 1 14 -23 13 -13 -3 27 -4 11 -3 14 5 9 7
-4 20 -2 29 4 17 11 17 11 1 6 -10 -3 -18 -1 -18 3 0 5 -7 11 -14 14 -10 4
-13 1 -10 -7z"/>
<path d="M1715 1179 c-4 -6 -5 -12 -2 -15 2 -3 7 2 10 11 7 17 1 20 -8 4z"/>
<path d="M1790 1150 c-8 -5 -12 -12 -9 -15 4 -3 12 1 19 10 14 17 11 19 -10 5z"/>
<path d="M1712 1103 c-9 -3 -4 -10 14 -19 32 -17 37 -15 15 7 -9 9 -22 14 -29
12z"/>
<path d="M1648 1079 c-8 -6 1 -9 25 -9 20 0 37 2 37 4 0 9 -50 12 -62 5z"/>
<path d="M1846 1055 c4 -8 1 -15 -5 -15 -6 0 -11 -5 -11 -11 0 -6 13 -8 31 -5
40 6 46 12 20 21 -12 3 -21 11 -21 16 0 5 -4 9 -10 9 -5 0 -7 -7 -4 -15z"/>
<path d="M1720 1051 c0 -5 6 -11 13 -14 6 -2 -1 -4 -17 -4 -19 0 -24 2 -15 8
10 6 7 9 -11 9 -14 0 -32 -5 -40 -11 -12 -8 -10 -9 8 -4 13 4 22 2 22 -4 0
-13 66 -15 74 -3 2 4 -4 13 -15 20 -10 7 -19 8 -19 3z"/>
<path d="M1807 1046 c-13 -10 -15 -16 -6 -21 10 -7 28 10 29 28 0 9 -2 9 -23
-7z"/>
<path d="M380 2621 c0 -5 9 -7 20 -4 11 3 20 7 20 9 0 2 -9 4 -20 4 -11 0 -20
-4 -20 -9z"/>
<path d="M414 2582 c12 -20 83 -62 105 -62 11 0 40 -9 66 -20 26 -11 56 -20
68 -19 12 0 -2 8 -30 16 -29 9 -53 19 -53 24 0 5 -11 9 -25 9 -31 0 -92 25
-119 48 -11 9 -16 11 -12 4z"/>
<path d="M600 2575 c0 -8 17 -23 38 -33 39 -20 190 -57 199 -49 2 3 -29 12
-69 21 -79 18 -125 33 -146 50 -11 8 -10 11 5 17 16 7 15 8 -4 8 -14 1 -23 -5
-23 -14z"/>
<path d="M658 2573 c7 -3 16 -2 19 1 4 3 -2 6 -13 5 -11 0 -14 -3 -6 -6z"/>
<path d="M700 2560 c8 -5 22 -9 30 -9 10 0 8 3 -5 9 -27 12 -43 12 -25 0z"/>
<path d="M1600 2544 c-52 -11 -163 -46 -208 -67 -26 -11 -52 -21 -59 -22 -6 0
-15 -4 -19 -8 -10 -10 40 -9 51 2 21 18 146 60 224 75 109 21 206 20 316 -3
101 -21 230 -71 264 -102 12 -11 29 -19 39 -17 27 6 -101 73 -208 109 -87 29
-107 32 -235 35 -77 1 -151 0 -165 -2z"/>
<path d="M825 2530 c11 -5 27 -9 35 -9 9 0 8 4 -5 9 -11 5 -27 9 -35 9 -9 0
-8 -4 5 -9z"/>
<path d="M884 2525 c-4 -9 3 -24 16 -35 33 -28 38 -25 10 6 -21 21 -22 27 -10
34 11 7 11 10 2 10 -7 0 -15 -7 -18 -15z"/>
<path d="M3225 2510 c-10 -11 -14 -20 -8 -20 5 0 18 9 28 20 10 11 14 20 8 20
-5 0 -18 -9 -28 -20z"/>
<path d="M3098 2513 c7 -3 16 -2 19 1 4 3 -2 6 -13 5 -11 0 -14 -3 -6 -6z"/>
<path d="M3048 2503 c6 -2 18 -2 25 0 6 3 1 5 -13 5 -14 0 -19 -2 -12 -5z"/>
<path d="M2950 2484 c-7 -8 -22 -15 -34 -15 -13 -1 -15 -3 -5 -6 22 -6 85 22
66 30 -9 3 -21 -1 -27 -9z"/>
<path d="M515 2470 c17 -11 37 -20 45 -20 8 0 -2 9 -23 20 -48 26 -61 26 -22
0z"/>
<path d="M2853 2483 c9 -2 23 -2 30 0 6 3 -1 5 -18 5 -16 0 -22 -2 -12 -5z"/>
<path d="M688 2473 c7 -3 16 -2 19 1 4 3 -2 6 -13 5 -11 0 -14 -3 -6 -6z"/>
<path d="M2788 2473 c6 -2 18 -2 25 0 6 3 1 5 -13 5 -14 0 -19 -2 -12 -5z"/>
<path d="M3107 2464 c4 -10 -4 -14 -27 -14 -18 0 -50 -5 -71 -11 -31 -10 -42
-9 -56 2 -15 12 -16 12 -10 -3 5 -15 0 -18 -31 -19 -47 0 -128 -16 -92 -18 27
-1 214 26 243 35 25 8 34 -24 11 -42 -18 -14 -18 -14 4 -4 12 6 22 19 22 30 0
10 9 25 20 33 21 14 21 15 1 20 -14 3 -18 1 -14 -9z"/>
<path d="M756 2461 c12 -11 76 -32 82 -27 2 3 -13 12 -33 20 -42 18 -64 21
-49 7z"/>
<path d="M947 2460 c14 -15 53 -21 53 -8 0 4 -6 8 -14 8 -8 0 -23 3 -33 6 -15
6 -16 4 -6 -6z"/>
<path d="M2735 2460 c-3 -5 -1 -10 4 -10 6 0 11 5 11 10 0 6 -2 10 -4 10 -3 0
-8 -4 -11 -10z"/>
<path d="M622 2430 c10 -6 53 -17 95 -25 43 -8 92 -18 108 -21 17 -4 27 -4 24
0 -3 3 -48 15 -100 26 -52 11 -105 22 -119 25 -21 4 -22 4 -8 -5z"/>
<path d="M850 2428 c0 -4 16 -8 35 -8 19 0 35 2 35 4 0 2 -16 6 -35 8 -19 2
-35 0 -35 -4z"/>
<path d="M1020 2430 c8 -5 24 -10 35 -10 11 0 31 -7 43 -16 12 -8 27 -12 33
-8 14 9 -32 28 -86 37 -27 4 -35 3 -25 -3z"/>
<path d="M2768 2433 c7 -3 16 -2 19 1 4 3 -2 6 -13 5 -11 0 -14 -3 -6 -6z"/>
<path d="M970 2421 c0 -5 9 -12 19 -16 11 -3 18 -12 15 -19 -4 -10 2 -12 21
-8 15 2 30 0 34 -5 3 -6 31 -13 61 -16 l55 -6 -65 20 c-36 11 -82 29 -102 40
-21 11 -38 15 -38 10z"/>
<path d="M1448 2416 c42 -23 63 -66 60 -123 -1 -29 1 -56 5 -60 8 -7 10 12 7
77 -2 53 -24 94 -57 109 -33 15 -43 13 -15 -3z"/>
<path d="M1368 2413 c7 -3 16 -2 19 1 4 3 -2 6 -13 5 -11 0 -14 -3 -6 -6z"/>
<path d="M1698 2413 c12 -2 30 -2 40 0 9 3 -1 5 -23 4 -22 0 -30 -2 -17 -4z"/>
<path d="M1825 2385 c85 -45 90 -50 45 -42 -28 5 -31 4 -17 -4 20 -12 67 -4
67 10 0 5 -12 12 -27 16 -15 3 -39 15 -53 25 -14 10 -39 22 -56 26 -16 4 2
-10 41 -31z"/>
<path d="M2668 2413 c6 -2 18 -2 25 0 6 3 1 5 -13 5 -14 0 -19 -2 -12 -5z"/>
<path d="M1160 2400 c8 -5 24 -10 35 -10 17 0 17 2 5 10 -8 5 -24 10 -35 10
-17 0 -17 -2 -5 -10z"/>
<path d="M1630 2390 c-23 -23 -29 -70 -7 -52 16 14 77 -20 77 -43 0 -8 5 -15
10 -15 17 0 11 14 -20 49 -21 23 -37 32 -50 28 -26 -7 -25 1 2 30 26 28 16 31
-12 3z"/>
<path d="M938 2393 c6 -2 18 -2 25 0 6 3 1 5 -13 5 -14 0 -19 -2 -12 -5z"/>
<path d="M1410 2390 c8 -5 20 -10 25 -10 6 0 3 5 -5 10 -8 5 -19 10 -25 10 -5
0 -3 -5 5 -10z"/>
<path d="M1753 2386 c9 -7 17 -21 17 -31 0 -12 6 -16 20 -12 15 4 22 -1 26
-19 4 -14 9 -23 12 -20 11 12 -23 67 -51 81 -37 18 -48 19 -24 1z m42 -26 c3
-5 1 -10 -4 -10 -6 0 -11 5 -11 10 0 6 2 10 4 10 3 0 8 -4 11 -10z"/>
<path d="M2102 2385 c-18 -8 -47 -24 -63 -35 -28 -21 -29 -24 -28 -98 l2 -77
8 75 c10 84 27 107 104 134 22 8 33 15 25 15 -8 0 -30 -6 -48 -14z"/>
<path d="M2745 2390 l-30 -8 27 -1 c15 0 30 4 33 9 3 6 5 9 3 9 -2 -1 -16 -5
-33 -9z"/>
<path d="M1670 2386 c0 -2 9 -6 20 -9 11 -3 20 -1 20 4 0 5 -9 9 -20 9 -11 0
-20 -2 -20 -4z"/>
<path d="M2993 2376 c1 -6 -14 -13 -33 -17 -26 -5 -29 -7 -10 -8 14 0 42 5 64
13 l39 13 -31 5 c-18 2 -30 0 -29 -6z"/>
<path d="M888 2373 c6 -2 18 -2 25 0 6 3 1 5 -13 5 -14 0 -19 -2 -12 -5z"/>
<path d="M2545 2354 c-28 -17 -51 -22 -91 -21 -67 2 -72 -11 -6 -15 52 -3 66
-27 22 -39 -14 -4 -20 -7 -14 -8 19 -2 24 -49 5 -51 -31 -3 -116 -8 -152 -9
-25 -1 -39 -7 -43 -18 -4 -10 -4 -14 0 -10 4 4 14 1 23 -6 14 -11 14 -10 2 6
-12 16 -10 17 32 17 61 0 81 -8 66 -26 -7 -8 -10 -16 -8 -18 6 -6 40 -9 79 -6
l35 2 -34 8 c-19 5 -41 6 -50 3 -12 -5 -13 -3 -5 6 8 8 42 13 95 13 69 0 85
-3 87 -16 2 -9 0 -16 -5 -17 -4 0 -19 -3 -33 -5 -70 -14 -121 -14 -178 0 l-62
14 2 -26 c3 -24 -2 -28 -42 -38 -36 -9 -41 -13 -26 -19 10 -5 26 -4 34 2 11 7
21 4 34 -9 10 -10 27 -18 38 -18 24 0 70 -21 70 -32 0 -17 -54 -30 -81 -20
-15 5 -33 6 -40 1 -16 -9 -13 -12 25 -24 16 -6 31 -15 33 -21 6 -18 -44 -35
-72 -24 -16 6 -25 6 -25 0 0 -6 4 -10 9 -10 15 0 22 -33 9 -42 -10 -7 -9 -8 2
-5 8 2 14 12 14 21 -1 9 4 16 12 16 7 0 25 5 39 12 19 9 25 17 21 32 -4 16 3
25 27 36 22 10 31 21 30 35 -1 13 10 28 31 42 l34 22 31 -79 c34 -86 61 -223
61 -309 0 -237 -123 -496 -306 -641 -97 -77 -162 -113 -275 -152 -90 -31 -101
-32 -254 -32 -141 -1 -169 2 -235 22 -242 76 -452 263 -540 481 -68 168 -83
365 -41 526 23 88 88 235 104 235 5 0 27 -5 48 -12 31 -9 37 -14 28 -25 -14
-17 15 -53 42 -53 10 0 21 -4 24 -10 3 -5 -1 -10 -9 -10 -9 0 -16 -6 -16 -14
0 -22 40 -46 77 -46 18 0 33 -4 33 -10 0 -5 -11 -10 -24 -10 -14 0 -28 -5 -31
-11 -11 -17 26 -49 54 -48 24 1 24 1 -6 10 -43 13 -50 27 -16 35 15 3 39 10
53 14 24 8 24 8 3 9 -13 1 -23 6 -23 11 0 6 -17 10 -39 10 -47 0 -76 26 -47
42 17 9 17 10 -1 25 -13 10 -15 16 -5 19 17 8 15 24 -4 24 -8 0 -13 -4 -9 -9
3 -5 1 -12 -5 -16 -5 -3 -10 -1 -10 4 0 6 -3 10 -7 10 -28 -5 -35 1 -22 17 11
13 26 15 73 11 56 -5 61 -4 87 24 18 20 22 29 12 27 -9 -2 -18 3 -20 10 -3 7
3 12 14 12 15 0 14 3 -7 20 -21 17 -23 21 -10 29 9 6 19 6 26 1 6 -6 13 -7 17
-4 3 3 22 0 42 -7 34 -12 38 -12 51 6 10 13 14 15 14 4 0 -23 -37 -41 -60 -29
-10 5 -27 10 -37 9 -12 0 -8 -4 11 -11 64 -23 84 -82 27 -77 -14 1 -42 -5 -61
-14 l-35 -15 30 -4 c17 -2 40 3 52 10 14 9 33 12 48 8 35 -9 48 0 35 24 -8 16
-8 18 5 14 12 -5 13 -1 4 25 -6 17 -8 42 -5 56 3 13 2 27 -4 30 -5 3 -10 13
-10 21 0 11 6 13 20 9 30 -10 24 2 -10 20 -17 9 -30 23 -30 35 0 24 -16 35
-23 16 -3 -8 -1 -17 6 -20 7 -2 5 -5 -4 -5 -9 -1 -22 5 -28 13 -14 17 -51 28
-51 15 0 -5 7 -9 15 -9 18 0 20 -16 3 -26 -6 -4 -22 5 -36 22 -21 23 -24 25
-18 7 7 -21 5 -21 -29 -12 -54 15 -67 5 -13 -11 38 -11 45 -18 44 -37 0 -13
-8 -23 -16 -24 -9 0 -5 -4 8 -9 38 -16 25 -23 -33 -18 -31 3 -50 1 -43 -3 7
-5 25 -9 41 -9 28 0 37 -14 15 -24 -7 -3 -4 -4 7 -3 16 2 20 -4 20 -32 0 -53
-11 -60 -80 -50 -105 14 -128 21 -114 31 10 7 6 8 -13 4 -15 -3 -29 -2 -32 3
-3 4 -17 6 -31 3 -15 -2 -25 0 -25 7 0 6 -9 11 -20 11 -16 0 -40 26 -40 44 0
3 12 7 28 7 20 1 22 2 7 6 -35 9 -123 51 -130 63 -8 13 -82 -124 -114 -211
-226 -607 120 -1279 750 -1455 112 -31 346 -44 466 -25 206 32 419 135 574
278 350 324 457 841 262 1269 -14 33 -25 65 -24 73 2 9 -7 7 -27 -7 -23 -17
-48 -22 -133 -25 -106 -5 -133 -2 -124 14 3 4 12 6 20 3 7 -3 22 -1 32 5 10 6
12 11 6 11 -7 0 -13 4 -13 9 0 5 44 10 97 10 53 1 98 3 101 5 2 3 16 0 30 -5
53 -18 132 -250 154 -449 26 -238 -44 -511 -188 -727 -303 -456 -899 -627
-1404 -404 -307 135 -546 413 -636 741 -35 129 -45 362 -20 494 22 114 74 259
127 351 40 70 43 73 68 64 25 -9 25 -8 7 6 -11 8 -25 15 -31 15 -14 0 -81
-121 -118 -210 -128 -311 -105 -679 59 -979 120 -219 336 -413 565 -506 143
-58 230 -76 385 -82 166 -7 261 5 401 48 350 109 637 395 746 744 44 141 51
193 51 355 0 134 -4 169 -27 258 -14 56 -42 140 -62 185 -20 45 -39 87 -41 93
-3 7 7 17 23 22 l28 11 -30 -3 c-16 -1 -38 -6 -48 -10 -10 -5 -23 -3 -32 4
-10 9 -15 9 -15 1 0 -7 -31 -11 -95 -11 -93 0 -95 1 -83 20 7 11 20 20 28 21
10 0 8 3 -5 9 l-20 8 20 8 c11 4 22 11 25 14 9 13 53 23 46 11 -4 -6 -2 -11 3
-11 6 0 11 5 11 11 0 5 5 7 10 4 6 -3 10 -2 10 3 0 20 -49 18 -85 -4z m-1137
-56 c-4 -11 -11 -10 -52 7 -18 8 -24 14 -15 17 19 7 71 -12 67 -24z m-57 -16
c10 -12 26 -19 34 -16 8 4 15 1 15 -5 0 -6 -4 -11 -10 -11 -5 0 -7 -7 -4 -15
7 -18 4 -18 -33 -4 -26 10 -26 12 -8 19 18 7 17 9 -10 15 -42 11 -66 25 -60
35 9 14 55 4 76 -18z m-41 -27 c16 -19 1 -19 -24 0 -16 12 -17 15 -4 15 8 0
21 -7 28 -15z m107 -91 c-2 -2 -12 -2 -21 2 -15 6 -15 7 1 20 15 11 19 10 21
-2 2 -9 2 -18 -1 -20z m-407 -19 c0 -3 -16 -36 -35 -74 -70 -139 -99 -330 -76
-491 49 -336 303 -615 636 -700 407 -104 830 110 993 502 87 208 82 471 -12
669 -29 62 -31 69 -15 69 16 0 66 -116 89 -204 73 -286 -4 -587 -206 -804 -82
-89 -166 -150 -276 -201 -141 -65 -193 -76 -368 -76 -179 0 -240 14 -395 91
-213 105 -370 294 -447 537 -20 63 -23 93 -23 242 0 138 4 181 19 230 21 68
60 159 82 193 13 20 34 30 34 17z m-158 -93 c12 5 14 2 11 -13 -6 -21 -18 -25
-28 -9 -8 13 -71 13 -96 0 -10 -6 -19 -7 -19 -3 0 14 17 34 26 32 5 -1 19 -1
32 0 22 1 22 2 6 26 -9 14 -20 22 -25 19 -5 -3 -6 2 -2 11 5 14 13 9 43 -26
24 -28 42 -41 52 -37z m568 68 c0 -5 -4 -10 -10 -10 -5 0 -10 5 -10 10 0 6 5
10 10 10 6 0 10 -4 10 -10z m924 -7 c-4 -16 -4 -16 7 -2 9 13 21 14 62 8 61
-10 65 -14 43 -38 -20 -22 -54 -33 -62 -20 -3 6 -14 7 -24 4 -10 -3 -28 0 -38
6 -18 12 -19 14 -5 36 18 27 24 29 17 6z m402 -57 c9 -38 1 -61 -24 -64 -15
-2 -25 4 -33 22 -10 20 -15 23 -30 16 -26 -14 -39 -12 -39 6 0 8 3 13 8 11 4
-3 27 3 52 13 59 24 59 24 66 -4z m-2027 -92 c-16 -20 -1 -31 59 -40 26 -4 42
-11 42 -20 0 -8 -1 -14 -2 -14 -2 0 -25 7 -52 15 -51 16 -71 12 -62 -11 3 -8
1 -14 -4 -14 -13 0 -12 16 1 63 5 20 15 37 21 37 6 0 6 -6 -3 -16z m2061 -18
c0 -2 2 -11 5 -19 5 -10 -1 -13 -26 -9 -27 4 -31 2 -26 -12 4 -10 7 -22 7 -28
0 -6 12 -8 30 -4 24 4 30 2 30 -12 0 -14 -10 -17 -52 -19 -28 -1 -54 -7 -58
-13 -5 -8 -9 -5 -12 8 -4 15 0 20 19 20 31 0 36 6 28 32 -6 18 -12 21 -36 16
-20 -4 -29 -2 -29 8 0 11 28 20 113 35 4 0 7 -1 7 -3z m-2027 -128 c31 -2 47
-8 47 -16 0 -10 -8 -12 -27 -8 -16 3 -43 7 -60 8 -25 2 -33 7 -33 21 0 15 3
17 13 9 7 -6 34 -12 60 -14z m2057 -43 c0 -11 -13 -15 -53 -15 -29 0 -58 -5
-65 -12 -9 -9 -12 -7 -12 8 0 18 7 21 52 23 28 1 54 4 57 6 9 10 21 4 21 -10z
m-2100 -44 c0 -5 -7 -11 -15 -15 -17 -6 -20 -32 -5 -41 5 -3 20 10 32 29 25
38 48 45 68 21 16 -19 5 -65 -16 -65 -14 0 -14 2 1 16 9 9 14 21 12 28 -8 23
-32 15 -49 -15 -13 -22 -24 -30 -40 -27 -39 5 -35 77 5 78 4 0 7 -4 7 -9z
m2088 -34 c7 3 12 -3 12 -14 0 -18 -4 -19 -52 -12 -28 5 -54 6 -58 4 -9 -5 -6
-37 4 -54 6 -9 4 -12 -5 -9 -9 3 -15 22 -17 50 l-3 45 53 -7 c29 -4 59 -5 66
-3z m-2024 -126 c-24 -22 -26 -26 -11 -29 10 -2 24 2 32 8 12 10 15 9 15 -7 0
-15 -8 -20 -42 -21 -24 -2 -51 -5 -60 -8 -21 -6 -36 41 -21 65 13 20 45 21 51
2 3 -10 0 -12 -11 -8 -17 7 -42 -17 -33 -32 8 -12 46 -2 46 12 0 17 54 69 59
56 2 -6 -9 -23 -25 -38z m1994 -16 c23 0 32 -4 30 -15 -3 -10 -12 -13 -28 -10
-14 2 -42 4 -62 5 -29 0 -38 4 -38 17 0 15 6 16 33 10 17 -4 47 -7 65 -7z
m-19 -88 c37 -2 41 -23 12 -58 -16 -20 -23 -22 -38 -13 -10 6 -19 23 -21 38
-3 24 -11 30 -39 27 -6 -1 -9 7 -6 18 4 17 7 17 33 4 16 -7 42 -15 59 -16z
m-1912 -32 c5 -24 7 -43 3 -40 -8 5 -92 -16 -107 -27 -16 -13 -29 70 -13 85
10 9 11 7 6 -9 -9 -31 2 -53 25 -47 21 6 25 23 8 40 -7 7 -6 12 6 17 9 3 15 1
14 -7 -3 -27 2 -37 20 -37 28 0 32 12 16 43 -11 21 -11 27 -1 27 7 0 17 -20
23 -45z m1860 -93 c24 -9 43 -20 43 -24 0 -4 -10 -19 -23 -33 -14 -17 -28 -24
-39 -20 -22 9 -31 34 -18 51 9 9 6 15 -10 24 -11 6 -25 8 -30 5 -6 -3 -7 1 -4
10 7 17 9 17 81 -13z m-1846 -78 c-23 -26 -41 -52 -41 -58 0 -6 -7 -2 -15 8
-13 17 -13 20 7 30 11 6 28 21 36 34 l15 24 -39 -7 c-21 -4 -43 -8 -48 -9 -5
0 -11 5 -13 12 -3 9 14 12 67 12 l72 0 -41 -46z m1810 -49 c20 -7 25 -20 10
-29 -5 -3 -14 0 -20 8 -6 7 -29 21 -50 31 -24 10 -38 22 -34 30 3 10 13 7 40
-10 19 -13 43 -27 54 -30z m-1724 -24 c-7 -2 -31 -17 -54 -32 -28 -19 -43 -25
-45 -17 -6 17 95 77 104 63 4 -5 2 -12 -5 -14z m1695 -55 c10 6 9 3 -1 -9 -9
-12 -29 -17 -65 -17 l-51 -1 28 -24 c16 -14 34 -22 40 -18 8 4 7 1 -1 -9 -12
-14 -17 -13 -50 18 -20 19 -40 34 -44 34 -5 0 -8 4 -8 10 0 5 26 10 57 12 l57
3 -36 25 c-20 13 -34 28 -32 32 3 5 25 -8 49 -28 28 -22 49 -33 57 -28z
m-1658 -43 c-7 -31 -12 -58 -11 -60 2 -1 17 12 35 29 18 16 36 28 39 25 5 -6
-57 -66 -69 -67 -5 0 -8 -7 -8 -16 0 -8 -5 -12 -11 -9 -10 7 -6 58 8 110 4 16
-2 13 -29 -13 -19 -18 -37 -29 -41 -26 -6 6 81 83 94 84 4 0 0 -26 -7 -57z
m1508 -58 l45 -44 -29 -28 c-23 -22 -30 -25 -41 -13 -6 7 -7 10 -1 7 6 -4 19
2 28 12 15 17 15 19 0 32 -14 11 -18 11 -30 -6 -11 -15 -17 -16 -26 -7 -9 9
-8 12 4 12 25 0 32 20 15 38 -13 13 -19 13 -31 2 -9 -7 -16 -20 -16 -28 0 -12
-3 -13 -12 -4 -9 9 -5 19 17 42 16 16 30 30 31 30 1 0 21 -20 46 -45z m-1362
-25 c27 -27 25 -38 -14 -87 -23 -30 -36 -39 -44 -31 -7 7 0 19 24 41 39 34 43
70 8 75 -14 2 -32 -9 -53 -33 -17 -20 -35 -33 -41 -30 -10 6 69 84 88 85 6 0
21 -9 32 -20z m1243 -33 c3 -8 -4 -13 -22 -12 -17 0 -26 -5 -26 -15 0 -11 11
-15 37 -15 45 -1 62 -15 53 -43 -6 -22 -38 -37 -55 -27 -17 11 -11 21 13 20
42 0 32 20 -12 25 -58 7 -76 33 -42 61 27 22 47 24 54 6z m-921 -182 c-3 -18
0 -25 11 -25 25 0 31 -21 8 -27 -14 -4 -21 -13 -21 -32 l-1 -26 -18 22 c-12
15 -25 20 -40 16 -23 -6 -28 6 -9 25 10 10 10 17 -1 34 -12 19 -11 20 12 14
16 -4 29 -1 37 9 19 22 28 18 22 -10z m623 -1 c9 -14 16 -14 33 -5 25 13 27 9
10 -19 -10 -15 -9 -23 6 -39 21 -23 15 -27 -14 -11 -15 8 -22 6 -34 -11 l-14
-21 -4 23 c-2 16 -11 25 -25 27 -28 4 -30 18 -3 25 12 3 20 14 20 26 0 25 9
27 25 5z m-154 -20 c10 -12 10 -20 1 -34 -7 -12 -8 -21 -2 -25 15 -9 12 -41
-5 -55 -9 -8 -15 -8 -15 -2 0 6 6 12 13 15 9 3 9 7 -2 20 -22 27 -34 20 -27
-15 6 -31 6 -32 -11 -15 -14 13 -15 21 -7 35 8 12 8 22 1 34 -9 13 -7 22 7 37
23 25 30 26 47 5z m-301 -59 c0 -45 -4 -65 -12 -65 -9 0 -13 20 -13 65 0 45 4
65 13 65 8 0 12 -20 12 -65z m104 49 c35 -34 5 -115 -41 -113 -15 0 -14 2 3 9
25 10 31 24 30 65 -1 34 -16 45 -30 22 -7 -12 -5 -21 8 -36 22 -24 5 -29 -18
-5 -20 19 -20 24 0 52 18 26 27 27 48 6z m116 -49 c0 -18 -9 -43 -19 -56 -19
-23 -19 -24 -40 -5 -28 25 -28 79 0 107 20 20 22 20 40 3 11 -10 19 -30 19
-49z"/>
<path d="M2694 2039 c-3 -6 -2 -15 3 -20 13 -13 43 -1 43 17 0 16 -36 19 -46
3z"/>
<path d="M2710 1443 c0 -4 4 -14 9 -22 11 -17 45 -7 39 12 -5 13 -48 23 -48
10z"/>
<path d="M2676 1323 c-11 -11 -6 -31 8 -36 8 -3 20 0 26 8 9 11 7 16 -8 24
-11 6 -22 7 -26 4z"/>
<path d="M1872 754 c4 -21 22 -23 26 -1 2 10 -3 17 -13 17 -10 0 -15 -6 -13
-16z"/>
<path d="M1774 747 c-10 -28 0 -82 16 -82 11 0 15 12 15 44 0 44 -19 68 -31
38z"/>
<path d="M2662 2366 c8 -8 16 -10 19 -4 3 5 19 7 35 3 23 -4 25 -3 9 4 -11 5
-33 10 -48 10 -23 1 -26 -1 -15 -13z"/>
<path d="M700 2360 c8 -5 20 -10 25 -10 6 0 3 5 -5 10 -8 5 -19 10 -25 10 -5
0 -3 -5 5 -10z"/>
<path d="M965 2360 c11 -5 34 -8 50 -8 l30 0 -30 8 c-16 4 -39 8 -50 8 l-20 1
20 -9z"/>
<path d="M1680 2357 c0 -3 12 -12 26 -22 15 -9 23 -12 20 -6 -7 11 -46 35 -46
28z"/>
<path d="M748 2343 c7 -3 16 -2 19 1 4 3 -2 6 -13 5 -11 0 -14 -3 -6 -6z"/>
<path d="M2770 2340 c-13 -8 -12 -10 3 -10 9 0 17 5 17 10 0 12 -1 12 -20 0z"/>
<path d="M2804 2343 c4 -4 22 -6 41 -5 25 2 35 -1 35 -12 0 -19 -36 -40 -56
-32 -8 3 -14 1 -14 -4 0 -23 48 -8 80 25 l34 35 -64 0 c-35 0 -60 -3 -56 -7z"/>
<path d="M359 2307 c-87 -77 -111 -145 -90 -249 9 -42 9 -72 0 -122 -12 -73
-29 -88 -29 -26 0 30 -7 48 -31 74 -30 35 -134 94 -145 83 -10 -9 16 -149 35
-191 18 -43 65 -89 120 -118 29 -16 31 -20 31 -78 0 -66 -15 -81 -26 -24 -13
71 -88 125 -186 136 -34 4 -34 2 -18 -47 38 -118 96 -185 181 -206 49 -13 60
-30 59 -93 -1 -20 -1 -20 -16 4 -9 14 -27 33 -41 43 -27 21 -160 44 -173 31
-10 -11 53 -122 95 -166 32 -34 81 -58 119 -58 42 0 55 -11 67 -52 5 -22 8
-42 6 -45 -3 -2 -21 7 -40 20 -20 14 -57 28 -82 31 -48 8 -135 -1 -135 -13 0
-15 63 -102 87 -121 36 -28 95 -42 165 -39 l60 3 24 -40 c32 -53 30 -57 -13
-31 -28 16 -54 22 -98 22 -75 0 -135 -12 -135 -27 0 -7 24 -35 54 -64 75 -73
132 -86 256 -58 21 4 31 -2 59 -36 35 -44 36 -59 3 -41 -39 21 -232 5 -232
-19 0 -8 80 -84 110 -104 32 -21 134 -21 196 0 42 14 47 14 65 -2 10 -9 19
-22 19 -29 0 -6 -32 -41 -71 -78 -84 -79 -88 -66 52 -177 545 -435 1208 -518
1804 -225 160 78 306 177 449 303 l38 33 -72 71 -72 70 25 25 c25 25 25 25 73
9 61 -20 156 -21 195 0 40 20 109 83 109 99 0 31 -183 46 -244 20 -14 -6 -11
3 15 38 30 42 37 47 64 42 95 -17 127 -17 171 0 45 17 148 110 139 126 -9 14
-116 31 -159 25 -23 -4 -56 -15 -74 -26 -37 -23 -40 -14 -12 39 19 37 21 39
59 34 22 -3 65 -2 97 2 46 5 64 13 98 45 23 21 51 56 64 78 l22 40 -58 7 c-71
8 -134 -7 -181 -43 l-34 -25 7 26 c14 59 26 77 53 82 85 18 110 29 148 69 42
45 98 144 88 159 -6 10 -90 1 -140 -14 -18 -6 -47 -27 -64 -47 l-30 -37 6 40
c10 61 12 63 49 71 20 3 56 19 81 35 39 24 53 42 81 104 19 40 35 84 37 97 2
19 -2 22 -23 20 -104 -13 -158 -49 -185 -122 l-20 -55 -3 65 c-2 40 1 66 8 68
41 14 108 73 128 115 22 43 50 192 39 203 -11 11 -121 -52 -144 -83 -14 -18
-27 -50 -30 -73 -15 -111 -36 26 -26 172 5 83 3 98 -15 135 -12 22 -42 59 -68
82 -43 37 -49 40 -58 24 -5 -9 -11 -50 -14 -90 -4 -64 -1 -79 22 -127 15 -30
43 -69 62 -86 25 -22 37 -41 40 -68 l5 -37 -16 27 c-19 33 -85 74 -142 86 -33
8 -43 7 -43 -2 0 -18 40 -136 56 -169 17 -33 82 -82 130 -97 27 -9 34 -17 34
-38 0 -15 3 -37 6 -49 11 -40 -12 -24 -25 16 -14 48 -44 73 -117 101 -74 27
-77 27 -69 -17 22 -118 72 -190 158 -231 45 -21 45 -21 40 -64 -6 -50 -23 -75
-23 -35 0 58 -54 119 -137 153 l-36 16 6 -86 c7 -106 29 -151 97 -201 27 -20
50 -38 50 -39 0 -1 -7 -25 -16 -52 -20 -60 -39 -83 -31 -38 8 45 -33 123 -91
175 -46 40 -47 40 -53 17 -13 -43 -9 -188 4 -221 8 -18 33 -49 56 -70 l41 -37
-31 -55 c-17 -30 -32 -55 -33 -55 -2 0 -3 26 -2 57 0 68 -15 100 -77 169 l-45
49 -11 -40 c-6 -22 -11 -71 -11 -108 0 -73 17 -120 64 -170 14 -15 26 -31 26
-34 0 -8 -82 -104 -86 -101 -2 2 4 23 12 47 15 43 11 96 -8 134 -13 25 -78 97
-88 97 -10 0 -50 -148 -50 -186 0 -27 34 -108 62 -146 10 -15 10 -21 -5 -35
-17 -17 -21 -15 -88 54 l-71 73 -57 -51 c-164 -146 -388 -259 -616 -310 -38
-9 -124 -14 -235 -14 -148 0 -189 4 -265 23 -215 54 -403 150 -574 291 l-63
53 -63 -62 c-53 -53 -66 -61 -79 -51 -12 11 -10 19 16 62 42 67 48 134 19 228
-12 39 -26 71 -31 71 -10 0 -72 -74 -89 -107 -14 -28 -14 -91 0 -132 6 -18 10
-34 8 -36 -3 -2 -23 19 -47 47 l-42 50 30 34 c63 72 77 128 61 235 -7 40 -14
76 -17 79 -9 8 -83 -79 -106 -124 -15 -30 -19 -53 -16 -93 3 -29 2 -53 -1 -53
-3 0 -19 25 -36 56 l-30 56 36 32 c65 57 74 79 73 185 0 53 -5 104 -10 114 -9
16 -16 12 -61 -33 -61 -61 -86 -110 -81 -156 6 -48 -7 -42 -26 13 -18 51 -21
83 -8 83 16 0 92 72 107 100 15 29 42 196 33 205 -7 7 -54 -14 -100 -45 -38
-26 -61 -62 -74 -115 l-7 -30 -8 40 c-13 66 -12 69 49 98 67 32 103 78 127
166 9 31 19 65 22 75 5 17 1 18 -26 13 -17 -4 -57 -19 -88 -34 -48 -24 -60
-35 -79 -78 l-23 -50 0 50 -1 50 69 32 c48 23 75 43 89 65 23 38 62 148 62
177 0 18 -3 18 -48 6 -58 -15 -94 -37 -128 -79 l-25 -31 6 35 c4 21 24 52 50
80 58 61 76 100 77 168 1 64 -10 142 -20 142 -4 0 -23 -15 -43 -33z m2558
-1802 c-5 -14 -157 -136 -240 -192 -176 -117 -419 -221 -619 -265 -88 -19
-134 -22 -318 -22 -185 0 -229 3 -316 22 -278 60 -529 184 -772 380 l-94 75
141 141 140 140 28 -26 c164 -152 455 -293 683 -330 98 -15 294 -15 395 1 217
35 483 163 645 310 l55 50 138 -137 c75 -75 136 -141 134 -147z"/>
<path d="M727 632 c-59 -59 -107 -112 -106 -117 0 -14 109 -102 209 -170 99
-68 290 -162 404 -199 547 -180 1146 -54 1599 336 l38 33 -112 112 -112 112
-56 -48 c-280 -240 -680 -353 -1041 -296 -239 39 -456 135 -651 291 l-66 52
-106 -106z m304 -125 c14 -10 15 -24 10 -85 -4 -39 -5 -72 -3 -72 1 0 27 18
56 40 59 45 64 46 92 25 14 -11 14 -13 3 -9 -12 4 -26 -12 -53 -60 -21 -37
-34 -71 -31 -76 10 -16 -8 -11 -35 10 -14 11 -19 19 -12 18 8 -2 29 21 48 50
18 28 31 52 28 52 -2 0 -29 -18 -58 -40 -29 -22 -57 -40 -62 -40 -6 0 -7 26
-3 68 4 37 6 68 4 70 -7 8 -56 -91 -51 -104 7 -18 -5 -18 -30 1 -14 11 -15 14
-4 15 19 0 84 116 76 136 -7 17 3 18 25 1z m1474 -49 c69 -82 -21 -190 -110
-132 -57 37 -52 133 8 159 40 17 73 8 102 -27z m-1239 -68 c23 -9 25 -12 12
-23 -21 -17 -61 -124 -54 -143 4 -10 2 -14 -6 -10 -7 3 -21 9 -31 12 -14 5
-15 8 -4 18 20 16 60 123 53 141 -6 18 -5 18 30 5z m1069 -147 c-27 -17 -33
-16 -31 3 2 25 -25 37 -56 25 -20 -8 -28 -17 -28 -36 0 -14 6 -25 13 -26 10 0
-18 -16 -33 -18 -3 -1 -2 38 2 87 3 48 7 93 7 101 1 8 34 -17 74 -55 68 -65
71 -70 52 -81z m-944 41 c19 -40 37 -73 40 -74 7 0 24 84 22 108 -1 14 23 16
32 2 3 -5 2 -10 -3 -10 -5 0 -17 -36 -27 -80 -10 -44 -21 -80 -24 -80 -3 0
-23 37 -43 82 l-36 81 -12 -44 c-6 -24 -13 -52 -16 -61 -3 -10 -1 -18 5 -18 6
0 11 -4 11 -9 0 -10 -48 -2 -56 10 -3 5 1 9 9 9 19 0 53 128 37 144 -16 16
-12 25 9 19 12 -3 32 -33 52 -79z m712 34 c-2 -13 2 -53 10 -90 8 -38 12 -68
10 -68 -3 0 -35 25 -71 55 -36 30 -67 53 -68 52 -5 -5 19 -102 27 -113 7 -8 1
-13 -16 -16 -18 -4 -22 -2 -16 6 14 17 -11 136 -32 151 -16 12 -16 13 2 18 14
3 40 -12 86 -50 l66 -54 -7 38 c-4 21 -11 48 -15 61 -12 31 -12 32 10 32 13 0
17 -6 14 -22z m-488 -18 c22 -5 48 -19 58 -31 35 -43 14 -119 -40 -140 -27
-10 -132 -1 -115 10 16 9 32 143 20 159 -13 15 18 16 77 2z m241 -72 c20 -40
43 -81 52 -90 14 -17 12 -18 -24 -18 -26 0 -34 3 -25 9 10 6 10 13 3 28 -8 15
-19 18 -46 15 -37 -4 -53 -26 -35 -48 9 -11 6 -14 -15 -14 -25 0 -35 13 -17
24 5 3 21 42 37 86 15 44 29 80 31 80 1 0 19 -33 39 -72z"/>
<path d="M2398 469 c-48 -27 3 -139 63 -139 58 0 60 85 2 130 -29 22 -40 24
-65 9z"/>
<path d="M2220 312 c0 -33 3 -35 33 -23 16 6 16 9 -8 31 l-25 23 0 -31z"/>
<path d="M1570 268 c0 -13 -3 -47 -6 -75 l-7 -53 36 0 c43 0 67 28 67 77 0 40
-30 73 -65 73 -19 0 -25 -5 -25 -22z"/>
<path d="M1802 221 c-10 -29 -10 -31 14 -31 27 0 29 5 10 39 l-13 24 -11 -32z"/>
<path d="M1030 2329 c0 -5 5 -9 10 -9 15 0 12 -30 -2 -30 -7 -1 3 -8 22 -17
19 -8 30 -17 23 -20 -7 -2 -9 -11 -6 -19 4 -10 0 -13 -13 -9 -15 5 -15 4 1 -4
11 -5 34 -13 50 -16 28 -7 29 -8 8 -16 -20 -7 -60 -5 -90 6 -7 2 -15 0 -18 -5
-4 -6 7 -10 24 -10 16 0 36 -7 44 -15 10 -9 17 -11 19 -4 2 6 25 11 51 11 26
1 47 5 47 10 0 4 -6 8 -12 8 -25 0 -98 35 -98 48 0 6 12 12 28 12 24 0 23 2
-16 20 -35 16 -42 24 -37 39 4 13 0 20 -15 24 -11 3 -20 1 -20 -4z"/>
<path d="M2650 2329 c-25 -5 -55 -8 -67 -6 -13 3 -20 0 -16 -6 3 -6 -2 -16
-12 -24 -17 -12 -14 -13 27 -13 26 0 49 4 52 8 3 5 -8 8 -24 7 -50 -3 -34 12
20 19 28 4 60 11 73 16 28 11 6 11 -53 -1z"/>
<path d="M1088 2313 c7 -3 16 -2 19 1 4 3 -2 6 -13 5 -11 0 -14 -3 -6 -6z"/>
<path d="M1864 2295 c-3 -14 -4 -34 -1 -45 3 -11 1 -22 -4 -25 -4 -3 -11 7
-15 22 -10 47 -12 49 -13 12 -1 -21 4 -39 12 -42 6 -2 17 -6 22 -8 6 -2 11 20
11 54 2 61 -2 72 -12 32z"/>
<path d="M925 2300 c19 -8 73 -14 64 -6 -2 2 -22 6 -44 9 -28 5 -34 4 -20 -3z"/>
<path d="M1150 2300 c26 -8 107 -13 99 -6 -3 3 -31 7 -64 10 -40 3 -52 2 -35
-4z"/>
<path d="M2343 2303 c9 -2 25 -2 35 0 9 3 1 5 -18 5 -19 0 -27 -2 -17 -5z"/>
<path d="M2458 2293 c7 -3 16 -2 19 1 4 3 -2 6 -13 5 -11 0 -14 -3 -6 -6z"/>
<path d="M2308 2283 c7 -3 16 -2 19 1 4 3 -2 6 -13 5 -11 0 -14 -3 -6 -6z"/>
<path d="M1160 2276 c0 -2 7 -7 16 -10 8 -3 12 -2 9 4 -6 10 -25 14 -25 6z"/>
<path d="M950 2260 c8 -5 22 -10 30 -10 13 0 13 1 0 10 -8 5 -22 10 -30 10
-13 0 -13 -1 0 -10z"/>
<path d="M1696 2251 c-17 -51 -77 -169 -91 -181 -19 -16 -62 10 -70 43 -3 12
-9 40 -14 62 l-9 40 -1 -38 c-2 -73 45 -136 89 -122 18 6 25 -2 22 -27 -1 -3
6 -12 15 -20 15 -11 16 -11 10 5 -19 50 -16 65 23 146 22 46 39 91 37 100 -2
11 -5 9 -11 -8z"/>
<path d="M2320 2260 c-13 -8 -13 -10 2 -10 9 0 20 5 23 10 8 13 -5 13 -25 0z"/>
<path d="M1038 2253 c7 -3 16 -2 19 1 4 3 -2 6 -13 5 -11 0 -14 -3 -6 -6z"/>
<path d="M2365 2240 c-3 -5 -1 -10 4 -10 6 0 11 5 11 10 0 6 -2 10 -4 10 -3 0
-8 -4 -11 -10z"/>
<path d="M985 2230 c3 -5 8 -10 11 -10 2 0 4 5 4 10 0 6 -5 10 -11 10 -5 0 -7
-4 -4 -10z"/>
<path d="M2325 2230 c3 -5 8 -10 11 -10 2 0 4 5 4 10 0 6 -5 10 -11 10 -5 0
-7 -4 -4 -10z"/>
<path d="M1440 2220 c0 -5 5 -10 11 -10 5 0 7 5 4 10 -3 6 -8 10 -11 10 -2 0
-4 -4 -4 -10z"/>
<path d="M2533 2223 c9 -2 23 -2 30 0 6 3 -1 5 -18 5 -16 0 -22 -2 -12 -5z"/>
<path d="M1806 2201 c-4 -5 -2 -20 3 -33 9 -21 10 -21 10 10 1 32 -3 39 -13
23z"/>
<path d="M2240 2196 c0 -8 -12 -17 -27 -21 -21 -5 -24 -8 -12 -15 21 -14 -1
-44 -36 -48 l-27 -4 22 -15 c12 -8 19 -21 16 -29 -3 -8 -2 -14 2 -15 63 -6
103 -6 87 -1 -62 22 -72 57 -18 65 l28 4 -27 2 c-41 2 -34 18 8 19 49 2 57 12
11 12 -20 0 -37 5 -37 10 0 6 4 10 9 10 5 0 11 9 14 20 3 11 1 20 -4 20 -5 0
-9 -6 -9 -14z"/>
<path d="M1227 2173 c4 -10 2 -14 -4 -10 -5 3 -10 0 -10 -8 0 -9 10 -15 26
-15 18 0 22 3 14 11 -6 6 -9 18 -6 25 3 8 -1 14 -11 14 -10 0 -13 -5 -9 -17z"/>
<path d="M1871 2149 c-1 -33 5 -54 20 -73 11 -14 16 -26 10 -26 -5 0 -12 4
-16 10 -3 5 -12 7 -20 3 -10 -3 -20 6 -30 28 -13 32 -14 32 -15 8 0 -34 23
-64 43 -56 9 3 23 0 31 -9 9 -9 17 -10 21 -4 4 6 10 8 15 5 5 -3 8 4 7 15 -1
11 -6 20 -13 20 -15 0 -47 37 -41 47 3 5 2 24 -3 43 l-8 35 -1 -46z"/>
<path d="M1318 2173 c6 -2 18 -2 25 0 6 3 1 5 -13 5 -14 0 -19 -2 -12 -5z"/>
<path d="M2007 2163 c-4 -3 -7 -15 -7 -25 0 -10 -12 -30 -26 -45 -29 -29 -27
-39 4 -17 12 8 26 31 31 51 11 37 10 48 -2 36z"/>
<path d="M1343 2143 c9 -2 23 -2 30 0 6 3 -1 5 -18 5 -16 0 -22 -2 -12 -5z"/>
<path d="M1290 2130 c0 -5 5 -10 11 -10 5 0 7 5 4 10 -3 6 -8 10 -11 10 -2 0
-4 -4 -4 -10z"/>
<path d="M1840 2124 c0 -6 7 -19 16 -30 14 -18 14 -18 3 6 -14 31 -19 36 -19
24z"/>
<path d="M1448 2078 c10 -13 10 -17 0 -21 -7 -3 2 -4 19 -4 34 2 47 17 15 17
-10 0 -24 6 -32 13 -12 10 -12 9 -2 -5z"/>
<path d="M1255 2070 c3 -5 12 -7 20 -4 7 3 23 1 34 -5 17 -10 20 -9 15 4 -4 9
-19 15 -41 15 -19 0 -32 -4 -28 -10z"/>
<path d="M1675 2069 c-9 -14 -2 -20 14 -10 8 6 9 11 3 15 -6 3 -14 1 -17 -5z"/>
<path d="M1716 2054 c-5 -14 -4 -15 9 -4 17 14 19 20 6 20 -5 0 -12 -7 -15
-16z"/>
<path d="M1750 2050 c0 -5 5 -10 10 -10 6 0 10 5 10 10 0 6 -4 10 -10 10 -5 0
-10 -4 -10 -10z"/>
<path d="M1796 2045 c-3 -9 0 -15 9 -15 9 0 12 6 9 15 -4 8 -7 15 -9 15 -2 0
-5 -7 -9 -15z"/>
<path d="M2120 2043 c1 -30 90 -82 90 -53 0 6 -3 9 -8 6 -4 -2 -16 3 -27 11
-18 14 -18 15 -2 9 34 -11 40 7 7 20 -36 15 -60 18 -60 7z"/>
<path d="M1410 2020 l-35 -7 37 -2 c20 0 40 4 43 9 7 11 7 11 -45 0z"/>
<path d="M2235 2010 c11 -5 27 -9 35 -9 13 -1 13 0 0 9 -8 5 -24 9 -35 9 l-20
0 20 -9z"/>
<path d="M1790 1985 c0 -8 4 -15 10 -15 5 0 7 7 4 15 -4 8 -8 15 -10 15 -2 0
-4 -7 -4 -15z"/>
<path d="M1604 1975 c8 -8 17 -15 20 -15 3 0 3 7 0 15 -4 8 -13 15 -21 15 -12
0 -12 -2 1 -15z"/>
<path d="M2080 1970 c20 -15 21 -18 5 -23 -9 -4 -28 -7 -41 -7 -15 0 -24 -6
-24 -15 0 -8 5 -15 11 -15 5 0 7 -5 3 -12 -4 -7 -3 -8 5 -4 6 4 20 2 29 -5 14
-11 15 -11 5 1 -22 24 -15 42 8 19 11 -11 27 -18 34 -15 8 3 16 2 18 -2 2 -4
2 -1 1 5 -2 7 4 17 14 22 9 5 13 13 9 17 -4 4 -16 -2 -27 -14 -21 -23 -36 -30
-25 -12 3 6 1 10 -5 10 -6 0 -8 5 -4 11 5 8 9 8 14 -1 5 -9 9 -9 14 -1 4 6 4
16 1 21 -10 16 22 11 39 -6 14 -14 16 -14 16 0 0 17 -34 39 -44 29 -3 -3 -6
-2 -6 3 0 5 -16 9 -36 10 -36 1 -36 0 -14 -16z"/>
<path d="M2191 1946 c12 -10 60 -16 54 -6 -3 5 -18 10 -32 10 -15 0 -24 -2
-22 -4z"/>
<path d="M1350 1925 c-16 -19 0 -19 26 0 16 12 16 14 3 15 -9 0 -22 -7 -29
-15z"/>
<path d="M1268 1913 c6 -2 18 -2 25 0 6 3 1 5 -13 5 -14 0 -19 -2 -12 -5z"/>
<path d="M1297 1879 c-3 -11 -1 -22 4 -25 5 -3 9 2 9 10 0 9 9 16 20 16 11 0
20 4 20 9 0 18 -48 9 -53 -10z"/>
<path d="M2163 1888 c-3 -7 -1 -8 5 -4 7 4 12 1 12 -7 0 -8 7 -20 15 -27 22
-18 18 -38 -7 -43 -22 -4 -22 -4 -2 -6 29 -1 50 24 35 42 -7 9 -7 17 -1 23 6
6 -1 14 -20 21 -21 8 -32 8 -37 1z"/>
<path d="M1333 1843 c9 -2 25 -2 35 0 9 3 1 5 -18 5 -19 0 -27 -2 -17 -5z"/>
<path d="M1807 1793 c-4 -3 -7 -13 -7 -22 1 -13 3 -13 11 2 11 19 8 33 -4 20z"/>
<path d="M1645 1779 c-4 -6 -5 -12 -2 -15 2 -3 7 2 10 11 7 17 1 20 -8 4z"/>
<path d="M1686 1765 c4 -8 8 -15 10 -15 2 0 4 7 4 15 0 8 -4 15 -10 15 -5 0
-7 -7 -4 -15z"/>
<path d="M1667 1739 c4 -13 8 -18 11 -10 2 7 -1 18 -6 23 -8 8 -9 4 -5 -13z"/>
<path d="M1772 1675 c0 -25 4 -43 7 -39 8 8 7 84 -2 84 -4 0 -6 -20 -5 -45z"/>
<path d="M1870 1663 c0 -13 17 -26 38 -29 6 -1 10 2 6 7 -3 5 -9 7 -14 4 -5
-3 -13 3 -19 12 -6 10 -11 13 -11 6z"/>
<path d="M1671 1653 c-1 -7 -8 -13 -16 -13 -8 0 -20 -10 -26 -22 -7 -13 -18
-27 -26 -31 -9 -6 -10 -13 -3 -27 13 -25 13 -30 -5 -30 -24 0 -17 -20 8 -21
12 0 38 -1 58 -2 24 -1 35 2 32 10 -8 21 -37 25 -50 7 -12 -16 -13 -16 -20 1
-4 11 -2 20 5 23 17 5 15 22 -3 22 -13 0 -13 3 -3 20 15 23 57 23 75 0 11 -13
12 -13 13 3 0 9 -4 17 -9 17 -5 0 -14 12 -19 28 -6 15 -11 21 -11 15z"/>
<path d="M1894 1600 c0 -20 7 -25 19 -14 7 7 -2 34 -12 34 -4 0 -7 -9 -7 -20z"/>
<path d="M1654 1575 c4 -24 16 -30 16 -7 0 12 -4 22 -9 22 -5 0 -8 -7 -7 -15z"/>
<path d="M1695 1440 c3 -5 8 -10 11 -10 2 0 4 5 4 10 0 6 -5 10 -11 10 -5 0
-7 -4 -4 -10z"/>
<path d="M1830 1430 c-9 -6 -10 -10 -3 -10 6 0 15 5 18 10 8 12 4 12 -15 0z"/>
<path d="M1790 1403 c19 -8 42 -19 50 -23 8 -4 14 -19 14 -34 -1 -17 2 -24 8
-18 5 5 8 20 6 33 -2 18 -15 27 -53 41 -61 22 -73 22 -25 1z"/>
<path d="M1635 1390 c-10 -11 -27 -19 -36 -18 -11 2 -34 -15 -59 -42 -41 -45
-48 -60 -29 -60 5 0 7 5 4 10 -3 6 -2 10 4 10 5 0 13 9 16 20 3 11 16 25 27
31 27 15 78 18 85 6 3 -6 1 -7 -5 -3 -8 5 -12 -1 -12 -15 0 -19 2 -20 16 -8
15 12 16 11 10 -9 -6 -17 -3 -22 11 -22 15 0 16 2 3 10 -8 5 -13 10 -10 11 3
0 18 3 35 5 29 5 29 5 11 -15 -11 -12 -15 -21 -10 -21 5 0 18 13 27 30 14 23
16 34 7 50 -6 11 -15 18 -21 15 -15 -10 -10 -25 9 -26 14 0 14 -2 -3 -8 -30
-12 -47 -3 -35 19 15 29 11 37 -6 15 -16 -19 -16 -19 -12 8 6 32 -2 34 -27 7z"/>
<path d="M1925 1400 c-3 -5 -1 -10 4 -10 6 0 11 5 11 10 0 6 -2 10 -4 10 -3 0
-8 -4 -11 -10z"/>
<path d="M1555 1390 c3 -5 8 -10 11 -10 2 0 4 5 4 10 0 6 -5 10 -11 10 -5 0
-7 -4 -4 -10z"/>
<path d="M1904 1372 c-19 -12 -27 -52 -14 -67 10 -12 10 -18 0 -30 -7 -9 -10
-18 -7 -22 4 -3 9 1 13 10 5 13 9 14 24 5 14 -9 22 -9 34 1 9 8 16 18 16 23 0
6 -7 5 -15 -2 -13 -10 -19 -10 -35 5 -20 18 -28 65 -11 65 4 0 20 -12 35 -26
27 -28 33 -26 16 7 -6 10 -18 19 -26 19 -8 0 -12 5 -9 10 7 12 -5 13 -21 2z"/>
<path d="M1910 1330 c0 -5 10 -15 23 -21 22 -12 22 -12 3 10 -21 23 -26 26
-26 11z"/>
</g>
</svg>
